PathFileType	3	(X/Y/Z)	feet_movements_1__view1_aligned.trc
DataRate	CameraRate	NumFrames	NumMarkers	Units	OrigDataRate	OrigDataStartFrame	OrigNumFrames
100.0	100.0	18	19	mm	100.0	1781	1840
Frame#	Time	pelvis			neck			head			hip_left			hip_right			knee_left			knee_right			ankle_left			ankle_right			heel_left			heel_right			toe_left			toe_right			shoulder_left			shoulder_right			elbow_left			elbow_right			wrist_left			wrist_right			
		X1	Y1	Z1	X2	Y2	Z2	X3	Y3	Z3	X4	Y4	Z4	X5	Y5	Z5	X6	Y6	Z6	X7	Y7	Z7	X8	Y8	Z8	X9	Y9	Z9	X10	Y10	Z10	X11	Y11	Z11	X12	Y12	Z12	X13	Y13	Z13	X14	Y14	Z14	X15	Y15	Z15	X16	Y16	Z16	X17	Y17	Z17	X18	Y18	Z18	X19	Y19	Z19	
1781	17.80000	108.698474	956.845098	518.398278	139.465708	1499.356660	578.241799	158.625617	1651.421892	487.125699	29.178540	978.136124	488.745981	188.218368	935.554070	548.050526	80.410854	1091.386760	78.103216	175.239916	524.574397	423.735673	153.318570	692.832312	76.022692	63.575136	140.518168	495.089550	164.711177	638.808245	101.071366	40.898818	96.835010	531.243803	158.059401	686.507476	-119.823244	106.417879	56.829950	315.682664	-49.493563	1440.534651	554.031885	319.775490	1443.276842	650.496012	-210.870660	1214.636064	429.796557	402.500989	1164.037802	588.220050	-298.261005	1058.900128	223.787607	492.111686	1101.364301	344.593404
1782	17.81000	108.180967	956.976543	518.252599	139.154398	1499.361264	578.893068	158.390155	1651.476751	487.917980	28.695054	978.439642	488.468937	187.666885	935.513440	548.036188	81.898312	1095.115367	78.734237	175.394269	524.449041	422.777045	155.834691	696.562907	75.956025	63.385786	140.392161	495.106683	167.124163	642.488267	100.941332	40.709233	96.736958	531.331803	162.085259	690.626442	-119.795249	106.195085	56.719352	315.760639	-49.710630	1440.868846	554.603895	319.270176	1443.148675	651.295220	-211.465767	1215.071137	430.447417	401.733133	1163.718983	589.408313	-299.290731	1059.108873	224.555091	491.251518	1101.496267	345.479156
1783	17.82000	107.663461	957.107988	518.106919	138.843087	1499.365868	579.544337	158.154694	1651.531611	488.710261	28.211567	978.743160	488.191893	187.115402	935.472811	548.021849	83.385771	1098.843973	79.365257	175.548622	524.323686	421.818417	158.350811	700.293501	75.889359	63.196436	140.266153	495.123815	169.537148	646.168288	100.811298	40.519648	96.638906	531.419803	166.111118	694.745408	-119.767253	105.972291	56.608753	315.838615	-49.927697	1441.203040	555.175905	318.764861	1443.020507	652.094428	-212.060874	1215.506209	431.098277	400.965277	1163.400163	590.596575	-300.320458	1059.317618	225.322574	490.391351	1101.628233	346.364908
1784	17.83000	107.145954	957.239432	517.961240	138.531777	1499.370472	580.195606	157.919232	1651.586470	489.502543	27.728080	979.046678	487.914848	186.563919	935.432181	548.007510	84.873230	1102.572580	79.996278	175.702975	524.198330	420.859790	160.866931	704.024096	75.822692	63.007086	140.140146	495.140947	171.950133	649.848310	100.681264	40.330063	96.540855	531.507803	170.136977	698.864374	-119.739258	105.749497	56.498155	315.916590	-50.144764	1441.537234	555.747914	318.259547	1442.892339	652.893636	-212.655981	1215.941282	431.749137	400.197421	1163.081344	591.784838	-301.350184	1059.526363	226.090058	489.531184	1101.760200	347.250659
1785	17.84000	106.628447	957.370877	517.815561	138.220466	1499.375076	580.846875	157.683770	1651.641330	490.294824	27.244593	979.350196	487.637804	186.012437	935.391551	547.993171	86.360689	1106.301187	80.627299	175.857328	524.072974	419.901162	163.383051	707.754690	75.756026	62.817735	140.014138	495.158080	174.363119	653.528331	100.551231	40.140479	96.442803	531.595803	174.162836	702.983340	-119.711263	105.526703	56.387557	315.994566	-50.361831	1441.871429	556.319924	317.754232	1442.764172	653.692844	-213.251088	1216.376354	432.399996	399.429565	1162.762524	592.973100	-302.379911	1059.735108	226.857542	488.671016	1101.892166	348.136411
1786	17.85000	106.110940	957.502322	517.669882	137.909156	1499.379679	581.498144	157.448309	1651.696189	491.087105	26.761106	979.653714	487.360759	185.460954	935.350922	547.978833	87.848148	1110.029794	81.258320	176.011681	523.947619	418.942534	165.899172	711.485285	75.689359	62.628385	139.888131	495.175212	176.776104	657.208353	100.421197	39.950894	96.344751	531.683802	178.188695	707.102305	-119.683268	105.303909	56.276958	316.072541	-50.578897	1442.205623	556.891934	317.248918	1442.636004	654.492052	-213.846195	1216.811427	433.050856	398.661708	1162.443705	594.161363	-303.409637	1059.943853	227.625026	487.810849	1102.024132	349.022163
1787	17.86000	105.593434	957.633767	517.524203	137.597846	1499.384283	582.149413	157.212847	1651.751048	491.879386	26.277620	979.957232	487.083715	184.909471	935.310292	547.964494	89.335606	1113.758400	81.889341	176.166034	523.822263	417.983906	168.415292	715.215879	75.622693	62.439035	139.762124	495.192344	179.189090	660.888375	100.291163	39.761309	96.246699	531.771802	182.214553	711.221271	-119.655272	105.081116	56.166360	316.150516	-50.795964	1442.539818	557.463943	316.743603	1442.507837	655.291260	-214.441302	1217.246499	433.701716	397.893852	1162.124886	595.349626	-304.439364	1060.152597	228.392509	486.950681	1102.156098	349.907914
1788	17.87000	105.075927	957.765211	517.378524	137.286535	1499.388887	582.800682	156.977386	1651.805908	492.671667	25.794133	980.260749	486.806671	184.357989	935.269663	547.950155	90.823065	1117.487007	82.520362	176.320387	523.696907	417.025278	170.931412	718.946474	75.556026	62.249685	139.636116	495.209477	181.602075	664.568396	100.161129	39.571724	96.148648	531.859802	186.240412	715.340237	-119.627277	104.858322	56.055762	316.228492	-51.013031	1442.874012	558.035953	316.238289	1442.379669	656.090468	-215.036409	1217.681572	434.352575	397.125996	1161.806066	596.537888	-305.469090	1060.361342	229.159993	486.090514	1102.288064	350.793666
1789	17.88000	104.558420	957.896656	517.232845	136.975225	1499.393491	583.451951	156.741924	1651.860767	493.463948	25.310646	980.564267	486.529626	183.806506	935.229033	547.935816	92.310524	1121.215614	83.151383	176.474740	523.571551	416.066650	173.447532	722.677068	75.489360	62.060335	139.510109	495.226609	184.015061	668.248418	100.031095	39.382139	96.050596	531.947802	190.266271	719.459203	-119.599282	104.635528	55.945163	316.306467	-51.230098	1443.208206	558.607963	315.732974	1442.251502	656.889676	-215.631516	1218.116644	435.003435	396.358140	1161.487247	597.726151	-306.498817	1060.570087	229.927477	485.230346	1102.420031	351.679418
1790	17.89000	104.040913	958.028101	517.087166	136.663915	1499.398095	584.103220	156.506462	1651.915627	494.256229	24.827159	980.867785	486.252582	183.255023	935.188403	547.921477	93.797983	1124.944220	83.782404	176.629093	523.446196	415.108022	175.963653	726.407662	75.422693	61.870985	139.384101	495.243741	186.428046	671.928439	99.901061	39.192554	95.952544	532.035802	194.292130	723.578169	-119.571286	104.412734	55.834565	316.384443	-51.447165	1443.542401	559.179973	315.227660	1442.123334	657.688885	-216.226623	1218.551717	435.654295	395.590284	1161.168428	598.914413	-307.528543	1060.778832	230.694961	484.370179	1102.551997	352.565170
1791	17.90000	103.523407	958.159546	516.941487	136.352604	1499.402699	584.754489	156.271001	1651.970486	495.048510	24.343673	981.171303	485.975538	182.703541	935.147774	547.907139	95.285442	1128.672827	84.413425	176.783446	523.320840	414.149394	178.479773	730.138257	75.356026	61.681635	139.258094	495.260874	188.841032	675.608461	99.771028	39.002969	95.854492	532.123801	198.317989	727.697135	-119.543291	104.189940	55.723967	316.462418	-51.664232	1443.876595	559.751982	314.722345	1441.995167	658.488093	-216.821730	1218.986790	436.305154	394.822428	1160.849608	600.102676	-308.558270	1060.987577	231.462444	483.510012	1102.683963	353.450921
1792	17.91000	103.416211	958.135858	516.253830	136.112572	1499.246081	585.367333	156.193414	1651.879585	495.888993	24.225624	981.231140	485.203440	182.607159	935.040563	547.303952	96.404018	1131.515288	84.311001	177.211613	523.180424	412.773597	180.024274	732.786948	75.042581	61.552126	139.296517	495.181833	190.268367	678.236798	99.496719	38.847937	95.949883	532.138556	201.004439	730.313099	-119.850985	104.122102	55.664396	316.538652	-51.850984	1443.936330	560.214880	314.366782	1441.767779	659.197858	-217.104556	1219.106703	436.656724	394.499995	1160.601339	600.867726	-308.820378	1061.051576	231.716483	482.935260	1102.748891	353.951117
1793	17.92000	103.309016	958.112170	515.566173	135.872540	1499.089464	585.980177	156.115828	1651.788683	496.729476	24.107575	981.290978	484.431343	182.510777	934.933351	546.700766	97.522594	1134.357749	84.208577	177.639780	523.040008	411.397801	181.568775	735.435639	74.729135	61.422617	139.334941	495.102792	191.695703	680.865136	99.222411	38.692905	96.045273	532.153310	203.690889	732.929062	-120.158679	104.054264	55.604826	316.614886	-52.037737	1443.996065	560.677777	314.011219	1441.540391	659.907623	-217.387382	1219.226616	437.008293	394.177563	1160.353070	601.632776	-309.082487	1061.115574	231.970521	482.360509	1102.813819	354.451312
1794	17.93000	103.201820	958.088483	514.878516	135.632508	1498.932846	586.593020	156.038242	1651.697781	497.569959	23.989526	981.350815	483.659245	182.414395	934.826140	546.097579	98.641170	1137.200210	84.106153	178.067947	522.899592	410.022004	183.113276	738.084329	74.415689	61.293109	139.373365	495.023751	193.123038	683.493473	98.948102	38.537873	96.140663	532.168065	206.377340	735.545026	-120.466373	103.986425	55.545256	316.691119	-52.224489	1444.055801	561.140675	313.655656	1441.313003	660.617388	-217.670208	1219.346529	437.359862	393.855130	1160.104800	602.397825	-309.344596	1061.179572	232.224559	481.785757	1102.878748	354.951508
1795	17.94000	103.094625	958.064795	514.190859	135.392475	1498.776229	587.205864	155.960655	1651.606880	498.410442	23.871478	981.410652	482.887148	182.318013	934.718929	545.494393	99.759746	1140.042671	84.003729	178.496113	522.759176	408.646208	184.657777	740.733020	74.102243	61.163600	139.411788	494.944710	194.550374	686.121810	98.673794	38.382840	96.236053	532.182819	209.063790	738.160989	-120.774066	103.918587	55.485686	316.767353	-52.411242	1444.115536	561.603573	313.300092	1441.085615	661.327153	-217.953034	1219.466443	437.711431	393.532698	1159.856531	603.162875	-309.606705	1061.243571	232.478597	481.211006	1102.943676	355.451703
1796	17.95000	102.987430	958.041107	513.503202	135.152443	1498.619611	587.818708	155.883069	1651.515978	499.250925	23.753429	981.470490	482.115050	182.221631	934.611718	544.891206	100.878322	1142.885132	83.901304	178.924280	522.618761	407.270411	186.202279	743.381711	73.788797	61.034091	139.450212	494.865670	195.977709	688.750148	98.399485	38.227808	96.331444	532.197573	211.750240	740.776952	-121.081760	103.850749	55.426116	316.843587	-52.597994	1444.175271	562.066470	312.944529	1440.858227	662.036918	-218.235860	1219.586356	438.063001	393.210265	1159.608262	603.927925	-309.868814	1061.307569	232.732635	480.636254	1103.008604	355.951899
1797	17.96000	102.880234	958.017420	512.815546	134.912411	1498.462994	588.431552	155.805482	1651.425076	500.091408	23.635380	981.530327	481.342953	182.125248	934.504507	544.288020	101.996898	1145.727593	83.798880	179.352447	522.478345	405.894614	187.746780	746.030402	73.475351	60.904582	139.488635	494.786629	197.405044	691.378485	98.125177	38.072776	96.426834	532.212328	214.436691	743.392916	-121.389454	103.782911	55.366546	316.919820	-52.784747	1444.235006	562.529368	312.588966	1440.630839	662.746683	-218.518686	1219.706269	438.414570	392.887833	1159.359992	604.692975	-310.130922	1061.371568	232.986673	480.061503	1103.073532	356.452094
1798	17.97000	102.773039	957.993732	512.127889	134.672379	1498.306376	589.044396	155.727896	1651.334174	500.931891	23.517331	981.590164	480.570855	182.028866	934.397296	543.684833	103.115474	1148.570054	83.696456	179.780613	522.337929	404.518818	189.291281	748.679093	73.161905	60.775074	139.527059	494.707588	198.832380	694.006822	97.850868	37.917744	96.522224	532.227082	217.123141	746.008879	-121.697148	103.715072	55.306976	316.996054	-52.971499	1444.294742	562.992266	312.233403	1440.403452	663.456448	-218.801512	1219.826182	438.766139	392.565400	1159.111723	605.458025	-310.393031	1061.435566	233.240711	479.486751	1103.138460	356.952290
